<svg xmlns="http://www.w3.org/2000/svg" width="139.129" height="131.66" viewBox="0 0 139.129 131.66">
  <g id="testimonials-grid_" data-name="testimonials-grid " transform="translate(0.059)">
    <path id="Path_419" data-name="Path 419" d="M520.23,422.72a2.95,2.95,0,1,1-.843-2.115,2.95,2.95,0,0,1,.843,2.115Z" transform="translate(-513.75 -294.6)" fill="none" stroke="#939393" stroke-linecap="round" stroke-linejoin="round" stroke-width="1.18"/>
    <path id="Path_1233" data-name="Path 1233" d="M2.95,0A2.95,2.95,0,1,1,0,2.95,2.95,2.95,0,0,1,2.95,0Z" transform="translate(19.44 125.17)" fill="none" stroke="#939393" stroke-linecap="round" stroke-width="1.18"/>
    <path id="Path_1232" data-name="Path 1232" d="M2.95,0A2.95,2.95,0,1,1,0,2.95,2.95,2.95,0,0,1,2.95,0Z" transform="translate(38.3 125.17)" fill="none" stroke="#939393" stroke-linecap="round" stroke-width="1.18"/>
    <path id="Path_1231" data-name="Path 1231" d="M2.95,0A2.95,2.95,0,1,1,0,2.95,2.95,2.95,0,0,1,2.95,0Z" transform="translate(57.16 125.17)" fill="none" stroke="#939393" stroke-linecap="round" stroke-width="1.18"/>
    <path id="Path_1230" data-name="Path 1230" d="M2.95,0A2.95,2.95,0,1,1,0,2.95,2.95,2.95,0,0,1,2.95,0Z" transform="translate(76.01 125.17)" fill="none" stroke="#939393" stroke-linecap="round" stroke-width="1.18"/>
    <path id="Path_1229" data-name="Path 1229" d="M2.95,0A2.95,2.95,0,1,1,0,2.95,2.95,2.95,0,0,1,2.95,0Z" transform="translate(94.87 125.17)" fill="none" stroke="#939393" stroke-linecap="round" stroke-width="1.18"/>
    <path id="Path_1228" data-name="Path 1228" d="M2.95,0A2.95,2.95,0,1,1,0,2.95,2.95,2.95,0,0,1,2.95,0Z" transform="translate(113.73 125.17)" fill="none" stroke="#939393" stroke-linecap="round" stroke-width="1.18"/>
    <path id="Path_420" data-name="Path 420" d="M652.23,422.72a2.95,2.95,0,1,1-.843-2.115,2.95,2.95,0,0,1,.843,2.115Z" transform="translate(-513.75 -294.6)" fill="none" stroke="#939393" stroke-linecap="round" stroke-linejoin="round" stroke-width="1.18"/>
    <path id="Path_421" data-name="Path 421" d="M520.23,404.92a2.95,2.95,0,1,1-2.94-2.94,2.95,2.95,0,0,1,2.94,2.94Z" transform="translate(-513.75 -294.6)" fill="none" stroke="#939393" stroke-linecap="round" stroke-linejoin="round" stroke-width="1.18"/>
    <path id="Path_1227" data-name="Path 1227" d="M2.95,0A2.95,2.95,0,1,1,0,2.95,2.95,2.95,0,0,1,2.95,0Z" transform="translate(19.44 107.37)" fill="none" stroke="#939393" stroke-linecap="round" stroke-width="1.18"/>
    <path id="Path_1226" data-name="Path 1226" d="M2.95,0A2.95,2.95,0,1,1,0,2.95,2.95,2.95,0,0,1,2.95,0Z" transform="translate(38.3 107.37)" fill="none" stroke="#939393" stroke-linecap="round" stroke-width="1.18"/>
    <path id="Path_1225" data-name="Path 1225" d="M2.95,0A2.95,2.95,0,1,1,0,2.95,2.95,2.95,0,0,1,2.95,0Z" transform="translate(57.16 107.37)" fill="none" stroke="#939393" stroke-linecap="round" stroke-width="1.18"/>
    <path id="Path_1224" data-name="Path 1224" d="M2.95,0A2.95,2.95,0,1,1,0,2.95,2.95,2.95,0,0,1,2.95,0Z" transform="translate(76.01 107.37)" fill="none" stroke="#939393" stroke-linecap="round" stroke-width="1.18"/>
    <path id="Path_1223" data-name="Path 1223" d="M2.95,0A2.95,2.95,0,1,1,0,2.95,2.95,2.95,0,0,1,2.95,0Z" transform="translate(94.87 107.37)" fill="none" stroke="#939393" stroke-linecap="round" stroke-width="1.18"/>
    <path id="Path_1222" data-name="Path 1222" d="M2.95,0A2.95,2.95,0,1,1,0,2.95,2.95,2.95,0,0,1,2.95,0Z" transform="translate(113.73 107.37)" fill="none" stroke="#939393" stroke-linecap="round" stroke-width="1.18"/>
    <path id="Path_422" data-name="Path 422" d="M652.23,404.92a2.95,2.95,0,1,1-2.94-2.94,2.95,2.95,0,0,1,2.94,2.94Z" transform="translate(-513.75 -294.6)" fill="none" stroke="#939393" stroke-linecap="round" stroke-linejoin="round" stroke-width="1.18"/>
    <path id="Path_423" data-name="Path 423" d="M520.23,387.12a2.95,2.95,0,1,1-2.94-2.94,2.95,2.95,0,0,1,2.94,2.94Z" transform="translate(-513.75 -294.6)" fill="none" stroke="#939393" stroke-linecap="round" stroke-linejoin="round" stroke-width="1.18"/>
    <path id="Path_1221" data-name="Path 1221" d="M2.95,0A2.95,2.95,0,1,1,0,2.95,2.95,2.95,0,0,1,2.95,0Z" transform="translate(19.44 89.57)" fill="none" stroke="#939393" stroke-linecap="round" stroke-width="1.18"/>
    <path id="Path_1220" data-name="Path 1220" d="M2.95,0A2.95,2.95,0,1,1,0,2.95,2.95,2.95,0,0,1,2.95,0Z" transform="translate(38.3 89.57)" fill="none" stroke="#939393" stroke-linecap="round" stroke-width="1.18"/>
    <path id="Path_1219" data-name="Path 1219" d="M2.95,0A2.95,2.95,0,1,1,0,2.95,2.95,2.95,0,0,1,2.95,0Z" transform="translate(57.16 89.57)" fill="none" stroke="#939393" stroke-linecap="round" stroke-width="1.18"/>
    <path id="Path_1218" data-name="Path 1218" d="M2.95,0A2.95,2.95,0,1,1,0,2.95,2.95,2.95,0,0,1,2.95,0Z" transform="translate(76.01 89.57)" fill="none" stroke="#939393" stroke-linecap="round" stroke-width="1.18"/>
    <path id="Path_1217" data-name="Path 1217" d="M2.95,0A2.95,2.95,0,1,1,0,2.95,2.95,2.95,0,0,1,2.95,0Z" transform="translate(94.87 89.57)" fill="none" stroke="#939393" stroke-linecap="round" stroke-width="1.18"/>
    <path id="Path_1216" data-name="Path 1216" d="M2.95,0A2.95,2.95,0,1,1,0,2.95,2.95,2.95,0,0,1,2.95,0Z" transform="translate(113.73 89.57)" fill="none" stroke="#939393" stroke-linecap="round" stroke-width="1.18"/>
    <path id="Path_424" data-name="Path 424" d="M652.23,387.12a2.95,2.95,0,1,1-2.94-2.94,2.95,2.95,0,0,1,2.94,2.94Z" transform="translate(-513.75 -294.6)" fill="none" stroke="#939393" stroke-linecap="round" stroke-linejoin="round" stroke-width="1.18"/>
    <path id="Path_425" data-name="Path 425" d="M520.23,369.33a2.94,2.94,0,1,1-.858-2.085A2.95,2.95,0,0,1,520.23,369.33Z" transform="translate(-513.75 -294.6)" fill="none" stroke="#939393" stroke-linecap="round" stroke-linejoin="round" stroke-width="1.18"/>
    <path id="Path_426" data-name="Path 426" d="M539.09,369.33a2.95,2.95,0,1,1-.882-2.1,2.95,2.95,0,0,1,.882,2.1Z" transform="translate(-513.75 -294.6)" fill="none" stroke="#939393" stroke-linecap="round" stroke-linejoin="round" stroke-width="1.18"/>
    <path id="Path_427" data-name="Path 427" d="M558,369.33a3,3,0,1,1-3-2.95,2.95,2.95,0,0,1,3,2.95Z" transform="translate(-513.75 -294.6)" fill="none" stroke="#939393" stroke-linecap="round" stroke-linejoin="round" stroke-width="1.18"/>
    <path id="Path_428" data-name="Path 428" d="M576.8,369.33a2.94,2.94,0,1,1-.858-2.085A2.95,2.95,0,0,1,576.8,369.33Z" transform="translate(-513.75 -294.6)" fill="none" stroke="#939393" stroke-linecap="round" stroke-linejoin="round" stroke-width="1.18"/>
    <path id="Path_429" data-name="Path 429" d="M595.66,369.33a2.95,2.95,0,1,1-2.95-2.95,2.95,2.95,0,0,1,2.95,2.95Z" transform="translate(-513.75 -294.6)" fill="none" stroke="#939393" stroke-linecap="round" stroke-linejoin="round" stroke-width="1.18"/>
    <path id="Path_430" data-name="Path 430" d="M614.52,369.33a3,3,0,1,1-2.95-2.95,2.95,2.95,0,0,1,2.95,2.95Z" transform="translate(-513.75 -294.6)" fill="none" stroke="#939393" stroke-linecap="round" stroke-linejoin="round" stroke-width="1.18"/>
    <path id="Path_431" data-name="Path 431" d="M633.37,369.33a2.94,2.94,0,1,1-.858-2.085A2.95,2.95,0,0,1,633.37,369.33Z" transform="translate(-513.75 -294.6)" fill="none" stroke="#939393" stroke-linecap="round" stroke-linejoin="round" stroke-width="1.18"/>
    <path id="Path_432" data-name="Path 432" d="M652.23,369.33a2.94,2.94,0,1,1-.858-2.085A2.95,2.95,0,0,1,652.23,369.33Z" transform="translate(-513.75 -294.6)" fill="none" stroke="#939393" stroke-linecap="round" stroke-linejoin="round" stroke-width="1.18"/>
    <path id="Path_433" data-name="Path 433" d="M520.23,351.53a2.95,2.95,0,1,1-2.94-2.95,2.95,2.95,0,0,1,2.94,2.95Z" transform="translate(-513.75 -294.6)" fill="none" stroke="#939393" stroke-linecap="round" stroke-linejoin="round" stroke-width="1.18"/>
    <path id="Path_434" data-name="Path 434" d="M539.09,351.53a2.95,2.95,0,1,1-.882-2.1,2.95,2.95,0,0,1,.882,2.1Z" transform="translate(-513.75 -294.6)" fill="none" stroke="#939393" stroke-linecap="round" stroke-linejoin="round" stroke-width="1.18"/>
    <path id="Path_435" data-name="Path 435" d="M558,351.53a3,3,0,1,1-3-2.95,2.95,2.95,0,0,1,3,2.95Z" transform="translate(-513.75 -294.6)" fill="none" stroke="#939393" stroke-linecap="round" stroke-linejoin="round" stroke-width="1.18"/>
    <path id="Path_436" data-name="Path 436" d="M576.8,351.53a2.95,2.95,0,1,1-2.94-2.95A2.95,2.95,0,0,1,576.8,351.53Z" transform="translate(-513.75 -294.6)" fill="none" stroke="#939393" stroke-linecap="round" stroke-linejoin="round" stroke-width="1.18"/>
    <path id="Path_437" data-name="Path 437" d="M595.66,351.53a2.95,2.95,0,1,1-2.95-2.95,2.95,2.95,0,0,1,2.95,2.95Z" transform="translate(-513.75 -294.6)" fill="none" stroke="#939393" stroke-linecap="round" stroke-linejoin="round" stroke-width="1.18"/>
    <path id="Path_438" data-name="Path 438" d="M614.52,351.53a3,3,0,1,1-2.95-2.95,2.95,2.95,0,0,1,2.95,2.95Z" transform="translate(-513.75 -294.6)" fill="none" stroke="#939393" stroke-linecap="round" stroke-linejoin="round" stroke-width="1.18"/>
    <path id="Path_439" data-name="Path 439" d="M633.37,351.53a2.94,2.94,0,1,1-.858-2.085A2.95,2.95,0,0,1,633.37,351.53Z" transform="translate(-513.75 -294.6)" fill="none" stroke="#939393" stroke-linecap="round" stroke-linejoin="round" stroke-width="1.18"/>
    <path id="Path_440" data-name="Path 440" d="M652.23,351.53a2.95,2.95,0,1,1-2.94-2.95A2.95,2.95,0,0,1,652.23,351.53Z" transform="translate(-513.75 -294.6)" fill="none" stroke="#939393" stroke-linecap="round" stroke-linejoin="round" stroke-width="1.18"/>
    <path id="Path_441" data-name="Path 441" d="M520.23,333.73a2.95,2.95,0,1,1-2.94-2.94,2.95,2.95,0,0,1,2.94,2.94Z" transform="translate(-513.75 -294.6)" fill="none" stroke="#939393" stroke-linecap="round" stroke-linejoin="round" stroke-width="1.18"/>
    <path id="Path_442" data-name="Path 442" d="M539.09,333.73a2.95,2.95,0,1,1-.885-2.1,2.95,2.95,0,0,1,.885,2.1Z" transform="translate(-513.75 -294.6)" fill="none" stroke="#939393" stroke-linecap="round" stroke-linejoin="round" stroke-width="1.18"/>
    <path id="Path_443" data-name="Path 443" d="M558,333.73a3,3,0,1,1-3-2.94,2.95,2.95,0,0,1,3,2.94Z" transform="translate(-513.75 -294.6)" fill="none" stroke="#939393" stroke-linecap="round" stroke-linejoin="round" stroke-width="1.18"/>
    <path id="Path_444" data-name="Path 444" d="M576.8,333.73a2.95,2.95,0,1,1-2.94-2.94A2.95,2.95,0,0,1,576.8,333.73Z" transform="translate(-513.75 -294.6)" fill="none" stroke="#939393" stroke-linecap="round" stroke-linejoin="round" stroke-width="1.18"/>
    <path id="Path_445" data-name="Path 445" d="M595.66,333.73a2.95,2.95,0,1,1-2.95-2.94,2.95,2.95,0,0,1,2.95,2.94Z" transform="translate(-513.75 -294.6)" fill="none" stroke="#939393" stroke-linecap="round" stroke-linejoin="round" stroke-width="1.18"/>
    <path id="Path_446" data-name="Path 446" d="M614.52,333.73a3,3,0,1,1-2.95-2.94,2.95,2.95,0,0,1,2.95,2.94Z" transform="translate(-513.75 -294.6)" fill="none" stroke="#939393" stroke-linecap="round" stroke-linejoin="round" stroke-width="1.18"/>
    <path id="Path_447" data-name="Path 447" d="M633.37,333.73a2.95,2.95,0,1,1-2.94-2.94,2.95,2.95,0,0,1,2.94,2.94Z" transform="translate(-513.75 -294.6)" fill="none" stroke="#939393" stroke-linecap="round" stroke-linejoin="round" stroke-width="1.18"/>
    <path id="Path_448" data-name="Path 448" d="M652.23,333.73a2.95,2.95,0,1,1-2.94-2.94A2.95,2.95,0,0,1,652.23,333.73Z" transform="translate(-513.75 -294.6)" fill="none" stroke="#939393" stroke-linecap="round" stroke-linejoin="round" stroke-width="1.18"/>
    <path id="Path_449" data-name="Path 449" d="M520.23,315.93a2.95,2.95,0,1,1-2.94-2.94,2.95,2.95,0,0,1,2.94,2.94Z" transform="translate(-513.75 -294.6)" fill="none" stroke="#939393" stroke-linecap="round" stroke-linejoin="round" stroke-width="1.18"/>
    <path id="Path_1215" data-name="Path 1215" d="M2.95,0A2.95,2.95,0,1,1,0,2.95,2.95,2.95,0,0,1,2.95,0Z" transform="translate(19.44 18.38)" fill="none" stroke="#939393" stroke-linecap="round" stroke-width="1.18"/>
    <path id="Path_1214" data-name="Path 1214" d="M2.95,0A2.95,2.95,0,1,1,0,2.95,2.95,2.95,0,0,1,2.95,0Z" transform="translate(38.3 18.38)" fill="none" stroke="#939393" stroke-linecap="round" stroke-width="1.18"/>
    <path id="Path_1213" data-name="Path 1213" d="M2.95,0A2.95,2.95,0,1,1,0,2.95,2.95,2.95,0,0,1,2.95,0Z" transform="translate(57.16 18.38)" fill="none" stroke="#939393" stroke-linecap="round" stroke-width="1.18"/>
    <path id="Path_1212" data-name="Path 1212" d="M2.95,0A2.95,2.95,0,1,1,0,2.95,2.95,2.95,0,0,1,2.95,0Z" transform="translate(76.01 18.38)" fill="none" stroke="#939393" stroke-linecap="round" stroke-width="1.18"/>
    <path id="Path_1211" data-name="Path 1211" d="M2.95,0A2.95,2.95,0,1,1,0,2.95,2.95,2.95,0,0,1,2.95,0Z" transform="translate(94.87 18.38)" fill="none" stroke="#939393" stroke-linecap="round" stroke-width="1.18"/>
    <path id="Path_1210" data-name="Path 1210" d="M2.95,0A2.95,2.95,0,1,1,0,2.95,2.95,2.95,0,0,1,2.95,0Z" transform="translate(113.73 18.38)" fill="none" stroke="#939393" stroke-linecap="round" stroke-width="1.18"/>
    <path id="Path_450" data-name="Path 450" d="M652.23,315.93a2.95,2.95,0,1,1-2.94-2.94A2.95,2.95,0,0,1,652.23,315.93Z" transform="translate(-513.75 -294.6)" fill="none" stroke="#939393" stroke-linecap="round" stroke-linejoin="round" stroke-width="1.18"/>
    <path id="Path_451" data-name="Path 451" d="M520.23,298.14a2.94,2.94,0,1,1-.858-2.085A2.95,2.95,0,0,1,520.23,298.14Z" transform="translate(-513.75 -294.6)" fill="none" stroke="#939393" stroke-linecap="round" stroke-linejoin="round" stroke-width="1.18"/>
    <path id="Path_1209" data-name="Path 1209" d="M2.95,0A2.95,2.95,0,1,1,0,2.95,2.95,2.95,0,0,1,2.95,0Z" transform="translate(19.44 0.59)" fill="none" stroke="#939393" stroke-linecap="round" stroke-width="1.18"/>
    <path id="Path_1208" data-name="Path 1208" d="M2.95,0A2.95,2.95,0,1,1,0,2.95,2.95,2.95,0,0,1,2.95,0Z" transform="translate(38.3 0.59)" fill="none" stroke="#939393" stroke-linecap="round" stroke-width="1.18"/>
    <path id="Path_1207" data-name="Path 1207" d="M2.95,0A2.95,2.95,0,1,1,0,2.95,2.95,2.95,0,0,1,2.95,0Z" transform="translate(57.16 0.59)" fill="none" stroke="#939393" stroke-linecap="round" stroke-width="1.18"/>
    <path id="Path_1206" data-name="Path 1206" d="M2.95,0A2.95,2.95,0,1,1,0,2.95,2.95,2.95,0,0,1,2.95,0Z" transform="translate(76.01 0.59)" fill="none" stroke="#939393" stroke-linecap="round" stroke-width="1.18"/>
    <path id="Path_1205" data-name="Path 1205" d="M2.95,0A2.95,2.95,0,1,1,0,2.95,2.95,2.95,0,0,1,2.95,0Z" transform="translate(94.87 0.59)" fill="none" stroke="#939393" stroke-linecap="round" stroke-width="1.18"/>
    <path id="Path_1204" data-name="Path 1204" d="M2.95,0A2.95,2.95,0,1,1,0,2.95,2.95,2.95,0,0,1,2.95,0Z" transform="translate(113.73 0.59)" fill="none" stroke="#939393" stroke-linecap="round" stroke-width="1.18"/>
    <path id="Path_452" data-name="Path 452" d="M652.23,298.14a2.94,2.94,0,1,1-.858-2.085A2.95,2.95,0,0,1,652.23,298.14Z" transform="translate(-513.75 -294.6)" fill="none" stroke="#939393" stroke-linecap="round" stroke-linejoin="round" stroke-width="1.18"/>
  </g>
</svg>
