<svg xmlns="http://www.w3.org/2000/svg" width="95.636" height="93.765" viewBox="0 0 95.636 93.765">
  <g id="testimonials-grid-wraper" transform="translate(0)">
    <g id="testimonials-grid-2">
      <path id="Path_453" data-name="Path 453" d="M636.577,431.813a1.423,1.423,0,1,1-1.423-1.423A1.423,1.423,0,0,1,636.577,431.813Z" transform="translate(-633.73 -370.193)" fill="#101011"/>
      <path id="Path_454" data-name="Path 454" d="M642.467,431.813a1.423,1.423,0,1,1-1.423-1.423A1.423,1.423,0,0,1,642.467,431.813Z" transform="translate(-630.508 -370.193)" fill="#101011"/>
      <path id="Path_455" data-name="Path 455" d="M648.357,431.813a1.423,1.423,0,1,1-1.423-1.423,1.423,1.423,0,0,1,1.423,1.423Z" transform="translate(-627.285 -370.193)" fill="#101011"/>
      <path id="Path_456" data-name="Path 456" d="M654.247,431.813a1.423,1.423,0,1,1-1.423-1.423A1.423,1.423,0,0,1,654.247,431.813Z" transform="translate(-624.063 -370.193)" fill="#101011"/>
      <path id="Path_457" data-name="Path 457" d="M660.137,431.813a1.423,1.423,0,1,1-1.423-1.423A1.423,1.423,0,0,1,660.137,431.813Z" transform="translate(-620.841 -370.193)" fill="#101011"/>
      <path id="Path_458" data-name="Path 458" d="M666.007,431.813a1.423,1.423,0,1,1-1.423-1.423,1.423,1.423,0,0,1,1.423,1.423Z" transform="translate(-617.63 -370.193)" fill="#101011"/>
      <path id="Path_459" data-name="Path 459" d="M671.917,431.813a1.423,1.423,0,1,1-1.423-1.423A1.423,1.423,0,0,1,671.917,431.813Z" transform="translate(-614.396 -370.193)" fill="#101011"/>
      <path id="Path_460" data-name="Path 460" d="M677.807,431.813a1.423,1.423,0,1,1-1.423-1.423A1.423,1.423,0,0,1,677.807,431.813Z" transform="translate(-611.174 -370.193)" fill="#101011"/>
      <path id="Path_461" data-name="Path 461" d="M636.577,426.263a1.423,1.423,0,1,1-1.423-1.423A1.423,1.423,0,0,1,636.577,426.263Z" transform="translate(-633.73 -373.229)" fill="#101011"/>
      <path id="Path_462" data-name="Path 462" d="M642.467,426.263a1.423,1.423,0,1,1-1.423-1.423A1.423,1.423,0,0,1,642.467,426.263Z" transform="translate(-630.508 -373.229)" fill="#101011"/>
      <path id="Path_463" data-name="Path 463" d="M648.357,426.263a1.423,1.423,0,1,1-1.423-1.423,1.423,1.423,0,0,1,1.423,1.423Z" transform="translate(-627.285 -373.229)" fill="#101011"/>
      <path id="Path_464" data-name="Path 464" d="M654.247,426.263a1.423,1.423,0,1,1-1.423-1.423A1.423,1.423,0,0,1,654.247,426.263Z" transform="translate(-624.063 -373.229)" fill="#101011"/>
      <path id="Path_465" data-name="Path 465" d="M660.137,426.263a1.423,1.423,0,1,1-1.423-1.423A1.423,1.423,0,0,1,660.137,426.263Z" transform="translate(-620.841 -373.229)" fill="#101011"/>
      <path id="Path_466" data-name="Path 466" d="M666.007,426.263a1.423,1.423,0,1,1-1.423-1.423,1.423,1.423,0,0,1,1.423,1.423Z" transform="translate(-617.63 -373.229)" fill="#101011"/>
      <path id="Path_467" data-name="Path 467" d="M671.917,426.263a1.423,1.423,0,1,1-1.423-1.423A1.423,1.423,0,0,1,671.917,426.263Z" transform="translate(-614.396 -373.229)" fill="#101011"/>
      <path id="Path_468" data-name="Path 468" d="M677.807,426.263a1.423,1.423,0,1,1-1.423-1.423A1.423,1.423,0,0,1,677.807,426.263Z" transform="translate(-611.174 -373.229)" fill="#101011"/>
      <path id="Path_469" data-name="Path 469" d="M636.577,420.7a1.423,1.423,0,1,1-1.423-1.423A1.423,1.423,0,0,1,636.577,420.7Z" transform="translate(-633.73 -376.271)" fill="#101011"/>
      <path id="Path_470" data-name="Path 470" d="M642.467,420.7a1.423,1.423,0,1,1-1.423-1.423A1.423,1.423,0,0,1,642.467,420.7Z" transform="translate(-630.508 -376.271)" fill="#101011"/>
      <path id="Path_471" data-name="Path 471" d="M648.357,420.7a1.423,1.423,0,1,1-1.423-1.423,1.424,1.424,0,0,1,1.423,1.423Z" transform="translate(-627.285 -376.271)" fill="#101011"/>
      <path id="Path_472" data-name="Path 472" d="M654.247,420.7a1.423,1.423,0,1,1-1.423-1.423A1.423,1.423,0,0,1,654.247,420.7Z" transform="translate(-624.063 -376.271)" fill="#101011"/>
      <path id="Path_473" data-name="Path 473" d="M660.137,420.7a1.423,1.423,0,1,1-1.423-1.423A1.423,1.423,0,0,1,660.137,420.7Z" transform="translate(-620.841 -376.271)" fill="#101011"/>
      <path id="Path_474" data-name="Path 474" d="M666.007,420.7a1.423,1.423,0,1,1-1.423-1.423,1.424,1.424,0,0,1,1.423,1.423Z" transform="translate(-617.63 -376.271)" fill="#101011"/>
      <path id="Path_475" data-name="Path 475" d="M671.917,420.7a1.423,1.423,0,1,1-1.423-1.423A1.423,1.423,0,0,1,671.917,420.7Z" transform="translate(-614.396 -376.271)" fill="#101011"/>
      <path id="Path_476" data-name="Path 476" d="M677.807,420.7a1.423,1.423,0,1,1-1.423-1.423A1.423,1.423,0,0,1,677.807,420.7Z" transform="translate(-611.174 -376.271)" fill="#101011"/>
      <path id="Path_477" data-name="Path 477" d="M636.577,415.143a1.423,1.423,0,1,1-1.423-1.423A1.423,1.423,0,0,1,636.577,415.143Z" transform="translate(-633.73 -379.313)" fill="#101011"/>
      <path id="Path_478" data-name="Path 478" d="M642.467,415.143a1.423,1.423,0,1,1-1.423-1.423A1.423,1.423,0,0,1,642.467,415.143Z" transform="translate(-630.508 -379.313)" fill="#101011"/>
      <path id="Path_479" data-name="Path 479" d="M648.357,415.143a1.423,1.423,0,1,1-1.423-1.423,1.424,1.424,0,0,1,1.423,1.423Z" transform="translate(-627.285 -379.313)" fill="#101011"/>
      <path id="Path_480" data-name="Path 480" d="M654.247,415.143a1.423,1.423,0,1,1-1.423-1.423A1.423,1.423,0,0,1,654.247,415.143Z" transform="translate(-624.063 -379.313)" fill="#101011"/>
      <path id="Path_481" data-name="Path 481" d="M660.137,415.143a1.423,1.423,0,1,1-1.423-1.423A1.423,1.423,0,0,1,660.137,415.143Z" transform="translate(-620.841 -379.313)" fill="#101011"/>
      <path id="Path_482" data-name="Path 482" d="M666.007,415.143a1.423,1.423,0,1,1-1.423-1.423,1.424,1.424,0,0,1,1.423,1.423Z" transform="translate(-617.63 -379.313)" fill="#101011"/>
      <path id="Path_483" data-name="Path 483" d="M671.917,415.143a1.423,1.423,0,1,1-1.423-1.423A1.423,1.423,0,0,1,671.917,415.143Z" transform="translate(-614.396 -379.313)" fill="#101011"/>
      <path id="Path_484" data-name="Path 484" d="M677.807,415.143a1.423,1.423,0,1,1-1.423-1.423A1.423,1.423,0,0,1,677.807,415.143Z" transform="translate(-611.174 -379.313)" fill="#101011"/>
      <path id="Path_485" data-name="Path 485" d="M636.577,409.583a1.423,1.423,0,1,1-1.423-1.423A1.423,1.423,0,0,1,636.577,409.583Z" transform="translate(-633.73 -382.355)" fill="#101011"/>
      <path id="Path_486" data-name="Path 486" d="M642.467,409.583a1.423,1.423,0,1,1-1.423-1.423A1.423,1.423,0,0,1,642.467,409.583Z" transform="translate(-630.508 -382.355)" fill="#101011"/>
      <path id="Path_487" data-name="Path 487" d="M648.357,409.583a1.423,1.423,0,1,1-1.423-1.423,1.424,1.424,0,0,1,1.423,1.423Z" transform="translate(-627.285 -382.355)" fill="#101011"/>
      <path id="Path_488" data-name="Path 488" d="M654.247,409.583a1.423,1.423,0,1,1-1.423-1.423A1.423,1.423,0,0,1,654.247,409.583Z" transform="translate(-624.063 -382.355)" fill="#101011"/>
      <path id="Path_489" data-name="Path 489" d="M660.137,409.583a1.423,1.423,0,1,1-1.423-1.423A1.423,1.423,0,0,1,660.137,409.583Z" transform="translate(-620.841 -382.355)" fill="#101011"/>
      <path id="Path_490" data-name="Path 490" d="M666.007,409.583a1.423,1.423,0,1,1-1.423-1.423,1.424,1.424,0,0,1,1.423,1.423Z" transform="translate(-617.63 -382.355)" fill="#101011"/>
      <path id="Path_491" data-name="Path 491" d="M671.917,409.583a1.423,1.423,0,1,1-1.423-1.423A1.423,1.423,0,0,1,671.917,409.583Z" transform="translate(-614.396 -382.355)" fill="#101011"/>
      <path id="Path_492" data-name="Path 492" d="M677.807,409.583a1.423,1.423,0,1,1-1.423-1.423A1.423,1.423,0,0,1,677.807,409.583Z" transform="translate(-611.174 -382.355)" fill="#101011"/>
      <path id="Path_493" data-name="Path 493" d="M636.577,404.023a1.423,1.423,0,1,1-1.423-1.423A1.423,1.423,0,0,1,636.577,404.023Z" transform="translate(-633.73 -385.396)" fill="#101011"/>
      <path id="Path_494" data-name="Path 494" d="M642.467,404.023a1.423,1.423,0,1,1-1.423-1.423A1.423,1.423,0,0,1,642.467,404.023Z" transform="translate(-630.508 -385.396)" fill="#101011"/>
      <path id="Path_495" data-name="Path 495" d="M648.357,404.023a1.423,1.423,0,1,1-1.423-1.423,1.424,1.424,0,0,1,1.423,1.423Z" transform="translate(-627.285 -385.396)" fill="#101011"/>
      <path id="Path_496" data-name="Path 496" d="M654.247,404.023a1.423,1.423,0,1,1-1.423-1.423A1.423,1.423,0,0,1,654.247,404.023Z" transform="translate(-624.063 -385.396)" fill="#101011"/>
      <path id="Path_497" data-name="Path 497" d="M660.137,404.023a1.423,1.423,0,1,1-1.423-1.423A1.423,1.423,0,0,1,660.137,404.023Z" transform="translate(-620.841 -385.396)" fill="#101011"/>
      <path id="Path_498" data-name="Path 498" d="M666.007,404.023a1.423,1.423,0,1,1-1.423-1.423,1.424,1.424,0,0,1,1.423,1.423Z" transform="translate(-617.63 -385.396)" fill="#101011"/>
      <path id="Path_499" data-name="Path 499" d="M671.917,404.023a1.423,1.423,0,1,1-1.423-1.423A1.423,1.423,0,0,1,671.917,404.023Z" transform="translate(-614.396 -385.396)" fill="#101011"/>
      <path id="Path_500" data-name="Path 500" d="M677.807,404.023a1.423,1.423,0,1,1-1.423-1.423A1.423,1.423,0,0,1,677.807,404.023Z" transform="translate(-611.174 -385.396)" fill="#101011"/>
      <path id="Path_501" data-name="Path 501" d="M636.577,398.5a1.423,1.423,0,1,1-1.423-1.423A1.423,1.423,0,0,1,636.577,398.5Z" transform="translate(-633.73 -388.417)" fill="#101011"/>
      <path id="Path_502" data-name="Path 502" d="M642.467,398.5a1.423,1.423,0,1,1-1.423-1.423A1.423,1.423,0,0,1,642.467,398.5Z" transform="translate(-630.508 -388.417)" fill="#101011"/>
      <path id="Path_503" data-name="Path 503" d="M648.357,398.5a1.423,1.423,0,1,1-1.423-1.423,1.424,1.424,0,0,1,1.423,1.423Z" transform="translate(-627.285 -388.417)" fill="#101011"/>
      <path id="Path_504" data-name="Path 504" d="M654.247,398.5a1.423,1.423,0,1,1-1.423-1.423A1.423,1.423,0,0,1,654.247,398.5Z" transform="translate(-624.063 -388.417)" fill="#101011"/>
      <path id="Path_505" data-name="Path 505" d="M660.137,398.5a1.423,1.423,0,1,1-1.423-1.423A1.423,1.423,0,0,1,660.137,398.5Z" transform="translate(-620.841 -388.417)" fill="#101011"/>
      <path id="Path_506" data-name="Path 506" d="M666.007,398.5a1.423,1.423,0,1,1-1.423-1.423,1.424,1.424,0,0,1,1.423,1.423Z" transform="translate(-617.63 -388.417)" fill="#101011"/>
      <path id="Path_507" data-name="Path 507" d="M671.915,398.547a1.423,1.423,0,1,1-.365-1.082,1.423,1.423,0,0,1,.365,1.082Z" transform="translate(-614.394 -388.46)" fill="#101011"/>
      <path id="Path_508" data-name="Path 508" d="M677.807,398.5a1.423,1.423,0,1,1-1.423-1.423A1.423,1.423,0,0,1,677.807,398.5Z" transform="translate(-611.174 -388.417)" fill="#101011"/>
      <path id="Path_509" data-name="Path 509" d="M636.577,392.9a1.423,1.423,0,1,1-1.423-1.423A1.423,1.423,0,0,1,636.577,392.9Z" transform="translate(-633.73 -391.48)" fill="#101011"/>
      <path id="Path_510" data-name="Path 510" d="M642.467,392.9a1.423,1.423,0,1,1-1.423-1.423A1.423,1.423,0,0,1,642.467,392.9Z" transform="translate(-630.508 -391.48)" fill="#101011"/>
      <path id="Path_511" data-name="Path 511" d="M648.357,392.9a1.423,1.423,0,1,1-1.423-1.423,1.424,1.424,0,0,1,1.423,1.423Z" transform="translate(-627.285 -391.48)" fill="#101011"/>
      <path id="Path_512" data-name="Path 512" d="M654.247,392.9a1.423,1.423,0,1,1-1.423-1.423A1.423,1.423,0,0,1,654.247,392.9Z" transform="translate(-624.063 -391.48)" fill="#101011"/>
      <path id="Path_513" data-name="Path 513" d="M660.137,392.9a1.423,1.423,0,1,1-1.423-1.423A1.423,1.423,0,0,1,660.137,392.9Z" transform="translate(-620.841 -391.48)" fill="#101011"/>
      <path id="Path_514" data-name="Path 514" d="M666.007,392.9a1.423,1.423,0,1,1-1.423-1.423,1.424,1.424,0,0,1,1.423,1.423Z" transform="translate(-617.63 -391.48)" fill="#101011"/>
      <path id="Path_515" data-name="Path 515" d="M671.917,392.9a1.423,1.423,0,1,1-1.423-1.423A1.423,1.423,0,0,1,671.917,392.9Z" transform="translate(-614.396 -391.48)" fill="#101011"/>
      <path id="Path_516" data-name="Path 516" d="M677.807,392.9a1.423,1.423,0,1,1-1.423-1.423A1.423,1.423,0,0,1,677.807,392.9Z" transform="translate(-611.174 -391.48)" fill="#101011"/>
    </g>
    <g id="small-box">
      <path id="Path_1234" data-name="Path 1234" d="M1.63,0H61.645a1.63,1.63,0,0,1,1.63,1.63V61.645a1.63,1.63,0,0,1-1.63,1.63H1.63A1.63,1.63,0,0,1,0,61.645V1.63A1.63,1.63,0,0,1,1.63,0Z" transform="translate(31.916 30.044)" fill="rgba(0,0,0,0)" stroke="#00ceb5" stroke-width="0.89"/>
    </g>
  </g>
</svg>
